<?xml version="1.0" encoding="UTF-8"?>
<svg version="1.1" xmlns="http://www.w3.org/2000/svg" width="500" height="500">
<path d="M0 0 C165 0 330 0 500 0 C500 165 500 330 500 500 C335 500 170 500 0 500 C0 335 0 170 0 0 Z " fill="#CDBFBD" transform="translate(0,0)"/>
<path d="M0 0 C0 4.95 0 9.9 0 15 C-2.31 15.33 -4.62 15.66 -7 16 C-9.04892737 16.95907701 -9.04892737 16.95907701 -10 19 C-10.28324994 21.56049699 -10.39351016 23.88980771 -10.37109375 26.44921875 C-10.38848985 27.95247608 -10.40607407 29.45573123 -10.42382812 30.95898438 C-10.43385676 33.31767026 -10.43750822 35.6762059 -10.43579102 38.03491211 C-10.45485295 50.12398782 -11.67081536 57.7453504 -20 67 C-19.40251953 67.65355469 -19.40251953 67.65355469 -18.79296875 68.3203125 C-18.26316406 68.91585937 -17.73335937 69.51140625 -17.1875 70.125 C-16.66542969 70.70507812 -16.14335938 71.28515625 -15.60546875 71.8828125 C-11.76223457 76.95101913 -10.55338912 81.42454078 -10.5234375 87.69921875 C-10.50785797 88.41608353 -10.49227844 89.1329483 -10.47622681 89.87153625 C-10.42901873 92.14351412 -10.40104367 94.4151897 -10.375 96.6875 C-10.33843272 98.9703089 -10.29778826 101.2529493 -10.25234985 103.53559875 C-10.22525523 104.95117783 -10.20384715 106.36688003 -10.18881226 107.78263855 C-10.14065237 110.79126062 -9.9595312 113.12140639 -9 116 C-6.03 116.33 -3.06 116.66 0 117 C0 121.29 0 125.58 0 130 C-13.78617209 131.03252884 -13.78617209 131.03252884 -18.125 127.4375 C-22.11075528 123.46251704 -24.78167488 118.85631516 -25.43481445 113.30297852 C-25.39940552 111.36056274 -25.39940552 111.36056274 -25.36328125 109.37890625 C-25.36314684 107.93424465 -25.36382278 106.48958279 -25.36523438 105.04492188 C-25.3443885 102.80215052 -25.31245656 100.56047303 -25.2644043 98.31811523 C-24.8227388 88.03676989 -24.8227388 88.03676989 -29.33203125 79.14453125 C-31.12271001 77.44119388 -31.12271001 77.44119388 -33 76 C-33.57838623 75.50459717 -34.15677246 75.00919434 -34.75268555 74.4987793 C-36.1524996 73.31341381 -37.5743179 72.1541236 -39 71 C-40.44430855 68.11138291 -40.37688506 66.20352299 -40 63 C-37.04433525 59.32781046 -33.45094953 56.78798883 -29.55078125 54.2109375 C-27.70826684 52.90301121 -27.70826684 52.90301121 -26 50 C-25.83096538 47.42203744 -25.77092417 44.94354466 -25.796875 42.3671875 C-25.78631745 40.82290829 -25.77455943 39.27863691 -25.76171875 37.734375 C-25.75145357 35.31179161 -25.74987272 32.89030494 -25.77001953 30.46777344 C-25.87318131 14.23476842 -25.87318131 14.23476842 -20.70117188 7.63330078 C-14.21133403 1.40238585 -8.72651128 -0.12466445 0 0 Z " fill="#DD632E" transform="translate(110,186)"/>
<path d="M0 0 C3.96 0 7.92 0 12 0 C13.48251025 1.48251025 13.40266068 2.94274068 13.71875 5 C13.84636719 5.804375 13.97398437 6.60875 14.10546875 7.4375 C14.36848958 9.14583333 14.63151042 10.85416667 14.89453125 12.5625 C15.02214844 13.366875 15.14976562 14.17125 15.28125 15 C15.45237305 16.11375 15.45237305 16.11375 15.62695312 17.25 C15.83826715 19.0196495 15.83826715 19.0196495 17 20 C17.20496094 18.72382813 17.40992188 17.44765625 17.62109375 16.1328125 C17.89305815 14.46351379 18.16520291 12.79424447 18.4375 11.125 C18.57220703 10.28324219 18.70691406 9.44148438 18.84570312 8.57421875 C18.97783203 7.76855469 19.10996094 6.96289062 19.24609375 6.1328125 C19.36654053 5.38918457 19.4869873 4.64555664 19.61108398 3.87939453 C20 2 20 2 21 0 C24.96 0 28.92 0 33 0 C33 8.58 33 17.16 33 26 C31.02 26 29.04 26 27 26 C26.67 20.06 26.34 14.12 26 8 C24.68 13.94 23.36 19.88 22 26 C18.37 26 14.74 26 11 26 C9.68 19.73 8.36 13.46 7 7 C6.67 13.27 6.34 19.54 6 26 C4.02 26 2.04 26 0 26 C0 17.42 0 8.84 0 0 Z " fill="#060606" transform="translate(258,253)"/>
<path d="M0 0 C3.96 0 7.92 0 12 0 C12.48091058 2.20795422 12.95965179 4.416381 13.4375 6.625 C13.70433594 7.85476563 13.97117188 9.08453125 14.24609375 10.3515625 C14.90911451 13.56017072 15.48729384 16.76447568 16 20 C17.85715944 15.84157778 18.78990051 11.63994372 19.625 7.1875 C19.7590625 6.49462891 19.893125 5.80175781 20.03125 5.08789062 C20.35858288 3.39277391 20.67990594 1.69649854 21 0 C24.96 0 28.92 0 33 0 C33 8.58 33 17.16 33 26 C31.02 26 29.04 26 27 26 C26.67 20.06 26.34 14.12 26 8 C24.68 13.94 23.36 19.88 22 26 C18.37 26 14.74 26 11 26 C9.68 19.73 8.36 13.46 7 7 C6.67 13.27 6.34 19.54 6 26 C4.02 26 2.04 26 0 26 C0 17.42 0 8.84 0 0 Z " fill="#060505" transform="translate(127,253)"/>
<path d="M0 0 C4.77655522 2.43510658 7.56489342 5.22344478 10 10 C10.6506249 15.20499921 9.910372 18.634442 7 23 C2.7801376 26.91109198 -0.93659351 27.73379419 -6.5234375 27.53125 C-10.67789911 26.64007212 -13.30334368 24.18320899 -16 21 C-17.85746073 17.28507853 -17.4421807 13.05436108 -17 9 C-15.18766463 5.16621364 -13.69973473 3.46648982 -10.1875 1.125 C-6.44670843 -0.19527938 -3.94217103 -0.49277138 0 0 Z " fill="#0B0A0A" transform="translate(280,215)"/>
<path d="M0 0 C4.77655522 2.43510658 7.56489342 5.22344478 10 10 C10.6506249 15.20499921 9.910372 18.634442 7 23 C2.7801376 26.91109198 -0.93659351 27.73379419 -6.5234375 27.53125 C-10.67789911 26.64007212 -13.30334368 24.18320899 -16 21 C-17.85746073 17.28507853 -17.4421807 13.05436108 -17 9 C-15.18766463 5.16621364 -13.69973473 3.46648982 -10.1875 1.125 C-6.44670843 -0.19527938 -3.94217103 -0.49277138 0 0 Z " fill="#0B0B0A" transform="translate(245,252)"/>
<path d="M0 0 C3.96 0 7.92 0 12 0 C14.73472115 6.60105106 17.03715964 13.13005875 19 20 C19.33 13.4 19.66 6.8 20 0 C21.98 0 23.96 0 26 0 C26 8.58 26 17.16 26 26 C22.04 26 18.08 26 14 26 C13.59007812 24.56785156 13.18015625 23.13570313 12.7578125 21.66015625 C12.21395175 19.79415126 11.66965857 17.92827227 11.125 16.0625 C10.85558594 15.11697266 10.58617187 14.17144531 10.30859375 13.19726562 C10.04433594 12.29814453 9.78007812 11.39902344 9.5078125 10.47265625 C9.26691895 9.64000244 9.02602539 8.80734863 8.77783203 7.94946289 C8.17477709 5.81030132 8.17477709 5.81030132 6 5 C6 11.93 6 18.86 6 26 C4.02 26 2.04 26 0 26 C0 17.42 0 8.84 0 0 Z " fill="#080808" transform="translate(164,253)"/>
<path d="M0 0 C3.39762089 1.98194552 4.69546359 2.96926138 5.8125 6.75 C5.874375 7.4925 5.93625 8.235 6 9 C3.125 9.1875 3.125 9.1875 0 9 C-0.66 8.01 -1.32 7.02 -2 6 C-3.901994 5.52441794 -3.901994 5.52441794 -6 5.625 C-7.051875 5.61339844 -7.051875 5.61339844 -8.125 5.6015625 C-10.41058594 5.859086 -10.41058594 5.859086 -12 9 C-12.31478577 10.95214625 -12.31478577 10.95214625 -12.25 13 C-12.25515625 13.680625 -12.2603125 14.36125 -12.265625 15.0625 C-12.09917603 17.32416007 -12.09917603 17.32416007 -10 20 C-8.02252878 20.36297936 -8.02252878 20.36297936 -5.875 20.1875 C-4.59625 20.125625 -3.3175 20.06375 -2 20 C-1.67 18.68 -1.34 17.36 -1 16 C-2.98 16 -4.96 16 -7 16 C-7 14.35 -7 12.7 -7 11 C-4.54137599 10.94616152 -2.0839245 10.90640962 0.375 10.875 C1.42300781 10.84986328 1.42300781 10.84986328 2.4921875 10.82421875 C4.32897486 10.80655733 6.16601963 10.89696739 8 11 C10 13 10 13 10.1953125 16.0390625 C10.17210937 17.22242188 10.14890625 18.40578125 10.125 19.625 C10.10695312 20.81351562 10.08890625 22.00203125 10.0703125 23.2265625 C10.04710937 24.14179688 10.02390625 25.05703125 10 26 C8.02 26 6.04 26 4 26 C3.97303635 24.20841511 3.95362083 22.41671527 3.9375 20.625 C3.92589844 19.62726563 3.91429687 18.62953125 3.90234375 17.6015625 C4 15 4 15 5 13 C4.34 13 3.68 13 3 13 C2.97873047 13.90492188 2.97873047 13.90492188 2.95703125 14.828125 C2.71605638 18.86608235 2.53602769 21.31321452 0 24.5625 C-4.10019524 26.52717689 -7.53247362 26.81080334 -12 26 C-15.61647497 23.84550427 -17.41118414 21.84368553 -19 18 C-19.70031352 13.06523261 -19.51450496 9.08837587 -17.375 4.5625 C-12.17221659 -1.05102947 -7.19466027 -1.94772571 0 0 Z " fill="#0C0C0B" transform="translate(213,253)"/>
<path d="M0 0 C2.31 0 4.62 0 7 0 C7.02505615 0.60062256 7.0501123 1.20124512 7.07592773 1.82006836 C7.1915528 4.52611437 7.31442936 7.23178283 7.4375 9.9375 C7.47681641 10.88302734 7.51613281 11.82855469 7.55664062 12.80273438 C7.59853516 13.70185547 7.64042969 14.60097656 7.68359375 15.52734375 C7.72025146 16.35999756 7.75690918 17.19265137 7.79467773 18.05053711 C7.79367103 20.00338858 7.79367103 20.00338858 9 21 C11.33297433 21.04092937 13.66705225 21.04241723 16 21 C17.11823815 18.76352369 17.19396061 17.35108471 17.31640625 14.8671875 C17.35830078 14.06152344 17.40019531 13.25585938 17.44335938 12.42578125 C17.48267578 11.58402344 17.52199219 10.74226563 17.5625 9.875 C17.60568359 9.02550781 17.64886719 8.17601562 17.69335938 7.30078125 C17.79954236 5.20071777 17.90028497 3.10038052 18 1 C19.98 1 21.96 1 24 1 C24.11632513 4.41637953 24.18728897 7.83224897 24.25 11.25 C24.30027344 12.70212891 24.30027344 12.70212891 24.3515625 14.18359375 C24.45079335 21.37783066 24.45079335 21.37783066 22.109375 24.609375 C17.09222784 27.91697572 11.87462137 27.72062022 6 27 C3.02638914 24.78436838 1.63040207 23.26080415 0 20 C-0.08372659 18.47851674 -0.10730027 16.95344222 -0.09765625 15.4296875 C-0.09443359 14.53378906 -0.09121094 13.63789063 -0.08789062 12.71484375 C-0.07951172 11.77769531 -0.07113281 10.84054687 -0.0625 9.875 C-0.05798828 8.93011719 -0.05347656 7.98523438 -0.04882812 7.01171875 C-0.03702357 4.67441613 -0.02055759 2.33723939 0 0 Z " fill="#100F0F" transform="translate(390,252)"/>
<path d="M0 0 C2.31 0 4.62 0 7 0 C7.02505615 0.60062256 7.0501123 1.20124512 7.07592773 1.82006836 C7.1915528 4.52611437 7.31442936 7.23178283 7.4375 9.9375 C7.47681641 10.88302734 7.51613281 11.82855469 7.55664062 12.80273438 C7.59853516 13.70185547 7.64042969 14.60097656 7.68359375 15.52734375 C7.72025146 16.35999756 7.75690918 17.19265137 7.79467773 18.05053711 C7.79367103 20.00338858 7.79367103 20.00338858 9 21 C11.33297433 21.04092937 13.66705225 21.04241723 16 21 C17.11823815 18.76352369 17.19396061 17.35108471 17.31640625 14.8671875 C17.35830078 14.06152344 17.40019531 13.25585938 17.44335938 12.42578125 C17.48267578 11.58402344 17.52199219 10.74226563 17.5625 9.875 C17.60568359 9.02550781 17.64886719 8.17601562 17.69335938 7.30078125 C17.79954236 5.20071777 17.90028497 3.10038052 18 1 C19.98 1 21.96 1 24 1 C24.1748936 4.39517814 24.28103765 7.78919487 24.375 11.1875 C24.45041016 12.62706055 24.45041016 12.62706055 24.52734375 14.09570312 C24.67002679 20.96826977 24.67002679 20.96826977 22.85083008 23.76953125 C18.49134057 27.75535023 14.35822633 27.72711501 8.7890625 27.4921875 C6 27 6 27 2.8125 24.75 C0.35001743 21.01381955 -0.12922594 18.09163157 -0.09765625 13.671875 C-0.09282227 12.47304688 -0.09282227 12.47304688 -0.08789062 11.25 C-0.07951172 10.425 -0.07113281 9.6 -0.0625 8.75 C-0.05798828 7.90953125 -0.05347656 7.0690625 -0.04882812 6.203125 C-0.03707961 4.13538599 -0.01914522 2.06768376 0 0 Z " fill="#100F0F" transform="translate(342,252)"/>
<path d="M0 0 C1.98 0 3.96 0 6 0 C6 3.63 6 7.26 6 11 C10.62 11 15.24 11 20 11 C20 7.37 20 3.74 20 0 C21.65 0 23.3 0 25 0 C25 8.58 25 17.16 25 26 C23.02 26 21.04 26 19 26 C19 22.7 19 19.4 19 16 C14.71 16 10.42 16 6 16 C6 19.3 6 22.6 6 26 C4.02 26 2.04 26 0 26 C0 17.42 0 8.84 0 0 Z " fill="#070706" transform="translate(233,216)"/>
<path d="M0 0 C1.98 0 3.96 0 6 0 C6 3.63 6 7.26 6 11 C10.62 11 15.24 11 20 11 C20 7.37 20 3.74 20 0 C21.65 0 23.3 0 25 0 C25 8.58 25 17.16 25 26 C23.02 26 21.04 26 19 26 C19 22.7 19 19.4 19 16 C14.71 16 10.42 16 6 16 C6 19.3 6 22.6 6 26 C4.02 26 2.04 26 0 26 C0 17.42 0 8.84 0 0 Z " fill="#080707" transform="translate(155,216)"/>
<path d="M0 0 C1.98 0 3.96 0 6 0 C6.33 2.64 6.66 5.28 7 8 C7.54527344 7.4225 8.09054688 6.845 8.65234375 6.25 C14.73833767 0.25763675 14.73833767 0.25763675 18.6015625 -0.53125 C21.0625 -0.5 21.0625 -0.5 25 0 C20.87675353 4.25209792 16.48717034 8.13635705 12 12 C13.55107819 16.08326005 16.23828517 18.04026166 19.625 20.6875 C21.43154113 22.10626173 23.22760168 23.53880874 25 25 C25 25.33 25 25.66 25 26 C20.44826045 26.67433179 18.17969035 26.76195298 14.2421875 24.21875 C11.76002361 22.21038947 9.35183073 20.15905772 7 18 C6.67 20.64 6.34 23.28 6 26 C4.02 26 2.04 26 0 26 C0 17.42 0 8.84 0 0 Z " fill="#080808" transform="translate(127,216)"/>
<path d="M0 0 C6.93 0 13.86 0 21 0 C21 10 21 10 19.2421875 12.18359375 C18.46101563 12.59738281 17.67984375 13.01117188 16.875 13.4375 C16.05773437 13.89511719 15.24046875 14.35273438 14.3984375 14.82421875 C13.21121094 15.40623047 13.21121094 15.40623047 12 16 C10.845 16.5775 9.69 17.155 8.5 17.75 C7.675 18.1625 6.85 18.575 6 19 C5.67 19.66 5.34 20.32 5 21 C10.28 21 15.56 21 21 21 C21 22.65 21 24.3 21 26 C13.74 26 6.48 26 -1 26 C-1 22.7 -1 19.4 -1 16 C1.63411577 13.58379161 3.28774495 12.38482546 6.375 10.875 C7.07367188 10.49085938 7.77234375 10.10671875 8.4921875 9.7109375 C13.52678571 7 13.52678571 7 16 7 C16 6.34 16 5.68 16 5 C10.72 5 5.44 5 0 5 C0 3.35 0 1.7 0 0 Z " fill="#060606" transform="translate(318,253)"/>
<path d="M0 0 C6.27 0 12.54 0 19 0 C19 1.65 19 3.3 19 5 C14.71 5 10.42 5 6 5 C6 6.65 6 8.3 6 10 C9.63 10 13.26 10 17 10 C17 11.65 17 13.3 17 15 C13.37 15 9.74 15 6 15 C6 16.98 6 18.96 6 21 C10.29 21 14.58 21 19 21 C19 22.65 19 24.3 19 26 C12.73 26 6.46 26 0 26 C0 17.42 0 8.84 0 0 Z " fill="#050505" transform="translate(295,253)"/>
<path d="M0 0 C6.27 0 12.54 0 19 0 C19 1.65 19 3.3 19 5 C14.71 5 10.42 5 6 5 C6 6.65 6 8.3 6 10 C9.63 10 13.26 10 17 10 C17 11.65 17 13.3 17 15 C13.37 15 9.74 15 6 15 C6 16.98 6 18.96 6 21 C10.29 21 14.58 21 19 21 C19 22.65 19 24.3 19 26 C12.73 26 6.46 26 0 26 C0 17.42 0 8.84 0 0 Z " fill="#060505" transform="translate(185,216)"/>
<path d="M0 0 C7.59 0 15.18 0 23 0 C23 1.65 23 3.3 23 5 C20.36 5 17.72 5 15 5 C15 11.93 15 18.86 15 26 C13.02 26 11.04 26 9 26 C9 19.07 9 12.14 9 5 C6.03 5 3.06 5 0 5 C0 3.35 0 1.7 0 0 Z " fill="#070606" transform="translate(207,216)"/>
<path d="M0 0 C1.98 0 3.96 0 6 0 C6 6.93 6 13.86 6 21 C10.29 21 14.58 21 19 21 C19 22.65 19 24.3 19 26 C16.02077407 26.02683987 13.04178705 26.04676037 10.0625 26.0625 C8.78729492 26.07506836 8.78729492 26.07506836 7.48632812 26.08789062 C6.67744141 26.09111328 5.86855469 26.09433594 5.03515625 26.09765625 C4.2862915 26.10289307 3.53742676 26.10812988 2.76586914 26.11352539 C1 26 1 26 0 25 C-0.08737645 23.14630389 -0.10698153 21.28932459 -0.09765625 19.43359375 C-0.09443359 18.30888672 -0.09121094 17.18417969 -0.08789062 16.02539062 C-0.07951172 14.84138672 -0.07113281 13.65738281 -0.0625 12.4375 C-0.05798828 11.24962891 -0.05347656 10.06175781 -0.04882812 8.83789062 C-0.03699675 5.89187774 -0.02051287 2.94596319 0 0 Z " fill="#050505" transform="translate(370,253)"/>
<path d="M0 0 C2.54559319 0.56967912 3.42552363 1.31404406 4.9375 3.43359375 C5.3359375 5.80859375 5.3359375 5.80859375 5.3125 8.43359375 C5.32023438 9.29984375 5.32796875 10.16609375 5.3359375 11.05859375 C4.86181106 13.88475921 4.24660798 14.77508894 1.9375 16.43359375 C-1.92235753 16.92484834 -4.15215651 16.99380513 -7.5 14.93359375 C-9.71082955 11.39626647 -9.72023299 8.49655195 -9.0625 4.43359375 C-7.23216914 -0.14223339 -4.45516069 -0.0084378 0 0 Z " fill="#CABCBA" transform="translate(243.0625,257.56640625)"/>
<path d="M0 0 C2.54559319 0.56967912 3.42552363 1.31404406 4.9375 3.43359375 C5.3359375 5.80859375 5.3359375 5.80859375 5.3125 8.43359375 C5.32023437 9.29984375 5.32796875 10.16609375 5.3359375 11.05859375 C4.86181106 13.88475921 4.24660798 14.77508894 1.9375 16.43359375 C-1.92235753 16.92484834 -4.15215651 16.99380513 -7.5 14.93359375 C-9.71082955 11.39626647 -9.72023299 8.49655195 -9.0625 4.43359375 C-7.23216914 -0.14223339 -4.45516069 -0.0084378 0 0 Z " fill="#C3B6B4" transform="translate(278.0625,220.56640625)"/>
<path d="M0 0 C2.375 1.5625 2.375 1.5625 4 4 C4.42519574 7.46230815 4.63902633 9.8347167 2.9375 12.9375 C-0.1652833 14.63902633 -2.53769185 14.42519574 -6 14 C-8.4375 12.375 -8.4375 12.375 -10 10 C-10.61195145 6.3282913 -10.48706506 4.71186432 -8.375 1.625 C-5.28813568 -0.48706506 -3.6717087 -0.61195145 0 0 Z " fill="#8A8080" transform="translate(315,297)"/>
<path d="M0 0 C1.85546875 0.40234375 1.85546875 0.40234375 3.54296875 2.33984375 C3.97609375 3.02046875 4.40921875 3.70109375 4.85546875 4.40234375 C7.45402608 5.20656455 7.45402608 5.20656455 9.85546875 5.40234375 C9.85546875 5.73234375 9.85546875 6.06234375 9.85546875 6.40234375 C5.56546875 6.40234375 1.27546875 6.40234375 -3.14453125 6.40234375 C-3.14453125 8.05234375 -3.14453125 9.70234375 -3.14453125 11.40234375 C-1.16453125 11.40234375 0.81546875 11.40234375 2.85546875 11.40234375 C2.48046875 13.33984375 2.48046875 13.33984375 1.85546875 15.40234375 C-0.97336872 16.81676249 -3.0182987 16.72134707 -6.14453125 16.40234375 C-8.35895346 14.63080598 -9.01347226 13.29063244 -9.42578125 10.49609375 C-9.56933575 7.29004324 -9.34200663 4.89603219 -8.14453125 1.90234375 C-5.42288488 -0.13889103 -3.34292899 -0.1522281 0 0 Z " fill="#D2C4C1" transform="translate(209.14453125,257.59765625)"/>
<path d="M0 0 C7 0 7 0 9.4375 1 C11.5552381 3.71070476 11.57130492 5.74871362 11.37890625 9.125 C11 11 11 11 9.4375 13 C7 14 7 14 0 14 C0 9.38 0 4.76 0 0 Z " fill="#8D8482" transform="translate(244,297)"/>
<path d="M0 0 C0.94552734 0.16242188 0.94552734 0.16242188 1.91015625 0.328125 C3.91015625 3.328125 3.91015625 3.328125 3.72265625 6.390625 C2.91015625 9.328125 2.91015625 9.328125 -0.08984375 11.328125 C-2.65234375 11.578125 -2.65234375 11.578125 -5.08984375 11.328125 C-7.08984375 9.328125 -7.08984375 9.328125 -7.3203125 7.41796875 C-7.17875748 0.32734895 -7.08363772 0.25711934 0 0 Z " fill="#DBCECB" transform="translate(148.08984375,298.671875)"/>
<path d="M0 0 C6.0546875 -0.1953125 6.0546875 -0.1953125 8 0 C10 2 10 2 10.125 4.625 C10.08375 5.40875 10.0425 6.1925 10 7 C9.01 7.33 8.02 7.66 7 8 C7.99 9.98 8.98 11.96 10 14 C9.34 14 8.68 14 8 14 C7.34 12.35 6.68 10.7 6 9 C4.68 9 3.36 9 2 9 C2 10.65 2 12.3 2 14 C1.34 14 0.68 14 0 14 C0 9.38 0 4.76 0 0 Z " fill="#343030" transform="translate(346,297)"/>
<path d="M0 0 C7 0 7 0 10 2 C10.3125 4.5 10.3125 4.5 10 7 C8 9 8 9 4.875 9.125 C3.92625 9.08375 2.9775 9.0425 2 9 C2 10.65 2 12.3 2 14 C1.34 14 0.68 14 0 14 C0 9.38 0 4.76 0 0 Z " fill="#373333" transform="translate(322,297)"/>
<path d="M0 0 C7 0 7 0 9 1.25 C10 3 10 3 9.75 4.9375 C9.5025 5.618125 9.255 6.29875 9 7 C8.26676204 9.01508358 8.26676204 9.01508358 8 11 C8.99 12.485 8.99 12.485 10 14 C6.125 12.25 6.125 12.25 5 10 C2.97536745 9.34786708 2.97536745 9.34786708 1 9 C1 10.65 1 12.3 1 14 C0.67 14 0.34 14 0 14 C0 9.38 0 4.76 0 0 Z " fill="#1A1818" transform="translate(214,297)"/>
<path d="M0 0 C1.32 0.33 2.64 0.66 4 1 C4 5.29 4 9.58 4 14 C2.02 14 0.04 14 -2 14 C-2.05410687 12.22950311 -2.09284119 10.45853151 -2.125 8.6875 C-2.14820313 7.70136719 -2.17140625 6.71523438 -2.1953125 5.69921875 C-2 3 -2 3 0 0 Z " fill="#030303" transform="translate(219,265)"/>
<path d="M0 0 C2.91739927 2.91739927 3.62414707 6.1225963 5 10 C6.32 6.7 7.64 3.4 9 0 C9.66 0 10.32 0 11 0 C11.99 2.97 12.98 5.94 14 9 C15.99097846 6.01353231 16.94124926 3.40312738 18 0 C18.66 0 19.32 0 20 0 C19.57533503 1.77395508 19.1347591 3.54410631 18.6875 5.3125 C18.44386719 6.29863281 18.20023438 7.28476562 17.94921875 8.30078125 C17 11 17 11 14 14 C12.68 10.7 11.36 7.4 10 4 C8.35 7.3 6.7 10.6 5 14 C1.40541266 9.20721688 0 5.98283523 0 0 Z " fill="#363332" transform="translate(178,297)"/>
<path d="M0 0 C2.64 0 5.28 0 8 0 C8 0.33 8 0.66 8 1 C6.02 1 4.04 1 2 1 C2 2.65 2 4.3 2 6 C3.98 6 5.96 6 8 6 C8 6.66 8 7.32 8 8 C6.02 8 4.04 8 2 8 C2 9.65 2 11.3 2 13 C4.31 13 6.62 13 9 13 C9 13.33 9 13.66 9 14 C6.03 14 3.06 14 0 14 C0 9.38 0 4.76 0 0 Z " fill="#373332" transform="translate(283,297)"/>
<path d="M0 0 C2.64 0 5.28 0 8 0 C8 0.33 8 0.66 8 1 C6.02 1 4.04 1 2 1 C2 2.65 2 4.3 2 6 C3.98 6 5.96 6 8 6 C8 6.66 8 7.32 8 8 C6.02 8 4.04 8 2 8 C2 9.65 2 11.3 2 13 C4.31 13 6.62 13 9 13 C9 13.33 9 13.66 9 14 C6.03 14 3.06 14 0 14 C0 9.38 0 4.76 0 0 Z " fill="#383434" transform="translate(258,297)"/>
<path d="M0 0 C1.66611905 -0.042721 3.33382885 -0.04063832 5 0 C6 1 6 1 6.125 3.5 C6 6 6 6 5 7 C3.33382885 7.04063832 1.66611905 7.042721 0 7 C0 4.69 0 2.38 0 0 Z " fill="#B7A9A8" transform="translate(324,298)"/>
<path d="M0 0 C2.31 0.33 4.62 0.66 7 1 C7 2.65 7 4.3 7 6 C4.69 6 2.38 6 0 6 C0 4.02 0 2.04 0 0 Z " fill="#CBBEBB" transform="translate(215,298)"/>
<path d="M0 0 C2.96052484 3.36423277 3.92289822 6.69159287 5 11 C4.34 10.67 3.68 10.34 3 10 C3 9.34 3 8.68 3 8 C0.36 8 -2.28 8 -5 8 C-5.33 8.99 -5.66 9.98 -6 11 C-6.33 10.01 -6.66 9.02 -7 8 C-5.5625 5.8125 -5.5625 5.8125 -4 4 C-4 4.66 -4 5.32 -4 6 C-2.35 6 -0.7 6 1 6 C0.67 4.02 0.34 2.04 0 0 Z " fill="#3F3B3A" transform="translate(206,300)"/>
<path d="M0 0 C2.375 -0.125 2.375 -0.125 5 0 C5.66 0.66 6.32 1.32 7 2 C6.625 4.125 6.625 4.125 6 6 C4.02 6 2.04 6 0 6 C0 4.02 0 2.04 0 0 Z " fill="#B0A2A2" transform="translate(348,298)"/>
<path d="M0 0 C0.66 0 1.32 0 2 0 C2.33 2.97 2.66 5.94 3 9 C1.35 9 -0.3 9 -2 9 C-1.125 2.25 -1.125 2.25 0 0 Z " fill="#8E8583" transform="translate(204,297)"/>
<path d="M0 0 C0.66 0.33 1.32 0.66 2 1 C1.67 1.33 1.34 1.66 1 2 C5.29 2.33 9.58 2.66 14 3 C14 4.98 14 6.96 14 9 C13.67 9 13.34 9 13 9 C13 7.35 13 5.7 13 4 C7.72 4 2.44 4 -3 4 C-2.67 3.01 -2.34 2.02 -2 1 C-1.34 0.67 -0.68 0.34 0 0 Z " fill="#938787" transform="translate(326,270)"/>
<path d="M0 0 C0.33 0 0.66 0 1 0 C1 4.62 1 9.24 1 14 C0.01 13.34 -0.98 12.68 -2 12 C-1.85831863 10.56208484 -1.71148957 9.1246763 -1.5625 7.6875 C-1.48128906 6.88699219 -1.40007812 6.08648437 -1.31640625 5.26171875 C-1 3 -1 3 0 0 Z " fill="#BBAEAD" transform="translate(284,258)"/>
<path d="M0 0 C2.31 0 4.62 0 7 0 C7.144375 0.78375 7.28875 1.5675 7.4375 2.375 C7.87798925 4.96421018 7.87798925 4.96421018 9 7 C5.125 5.25 5.125 5.25 4 3 C1.97536745 2.34786708 1.97536745 2.34786708 0 2 C0 1.34 0 0.68 0 0 Z " fill="#423D3D" transform="translate(215,304)"/>
</svg>
